<?xml version="1.0" encoding="UTF-8"?>
<svg id="Layer_1" xmlns="http://www.w3.org/2000/svg" version="1.1" viewBox="0 0 177 24">
  <!-- Generator: Adobe Illustrator 30.1.0, SVG Export Plug-In . SVG Version: 2.1.1 Build 136)  -->
  <defs>
    <style>
      .st0 {
        fill: #ffb000;
      }

      .st1 {
        font-size: 31.4px;
      }

      .st1, .st2 {
        font-family: BilgresDEMO-Regular, 'Bilgres DEMO';
      }

      .st2 {
        fill: #5e5d5d;
        font-size: 16.29px;
      }
    </style>
  </defs>
  <path class="st0" d="M19.69,10.62h0s-5.92,0-5.92,0c-.65,0-1.18-.53-1.18-1.18v-1.94c0-.73-.55-1.37-1.28-1.42-.8-.05-1.47.58-1.47,1.37v3.17l2.75.77,5.84,1.63c.74.21,1.25.88,1.25,1.65v5.8H5.01c-1.25,0-2.26-1.01-2.26-2.26v-1.28c0-.55-.45-1-1-1H0v2.71c0,2.52,2.05,4.57,4.57,4.57h15.84c1.12,0,2.03-.91,2.03-2.03v-7.82c0-1.52-1.23-2.75-2.75-2.75Z"/>
  <path class="st0" d="M17.87.78H2.03C.91.78,0,1.69,0,2.82v7.82c0,1.52,1.23,2.75,2.75,2.75h0s5.92,0,5.92,0c.65,0,1.18.53,1.18,1.18v1.94c0,.73.55,1.37,1.28,1.42.8.05,1.47-.58,1.47-1.37v-3.17l-8.59-2.39c-.74-.21-1.25-.88-1.25-1.65V3.53h14.69c1.25,0,2.26,1.01,2.26,2.26v1.28c0,.55.45,1,1,1h1.75v-2.71c0-2.52-2.05-4.57-4.57-4.57Z"/>
  <text class="st1" transform="translate(23.48 23.22)"><tspan x="0" y="0">HAMA</tspan></text>
  <text class="st2" transform="translate(128.86 22.49)"><tspan x="0" y="0">Trade</tspan></text>
</svg>